M48
M71
T01C0.6
T02C0.8
T03C3.0
%
G05
T01
X005.200Y-015.560
X010.280Y-015.560
X010.280Y-009.210
X005.200Y-009.210
X027.900Y-009.010
X032.980Y-009.010
X032.980Y-015.360
X027.900Y-015.360
X061.710Y-011.750
X066.790Y-011.750
X066.790Y-005.400
X061.710Y-005.400
X061.790Y-055.560
X056.710Y-055.560
X056.710Y-061.910
X061.790Y-061.910
T02
X007.180Y-064.410
X010.850Y-058.290
X008.100Y-037.900
X001.750Y-037.900
X001.750Y-017.580
X013.650Y-006.800
X023.610Y-010.200
X036.830Y-012.700
X057.780Y-011.750
X058.940Y-041.870
X066.380Y-055.550
T03
X004.440Y-059.060
X006.030Y-003.810
X071.280Y-031.750
M30
